<?xml version="1.0" encoding="utf-8"?>
<!-- Generator: Adobe Illustrator 22.0.1, SVG Export Plug-In . SVG Version: 6.00 Build 0)  -->
<svg version="1.1" id="Layer_1" xmlns="http://www.w3.org/2000/svg" xmlns:xlink="http://www.w3.org/1999/xlink" x="0px" y="0px"
	 viewBox="0 0 280 280" style="enable-background:new 0 0 280 280;" xml:space="preserve">
<style type="text/css">
	.st0{fill:#1D1D1B;}
	.st1{fill:#FF9800;}
	.st2{fill:#2B2B2B;}
	.st3{fill:#636362;}
	.st4{fill:#EC3024;}
	.st5{fill:#CFCFCF;}
	.st6{fill:#3C3C3B;}
	.st7{fill:#CE23C0;}
	.st8{fill:#FF3D00;}
</style>
<g>
	<path class="st0" d="M45.8,133h-1.4l-5.3-18.7c-0.4-1.5-0.8-2.8-1-3.8c-0.2,1-0.4,2.1-0.8,3.3c-0.3,1.3-2.1,7.6-5.4,19.2h-1.4
		l-6.7-24.3h1.8l4.3,15.6c0.2,0.6,0.3,1.2,0.5,1.8c0.1,0.5,0.3,1,0.4,1.5c0.1,0.5,0.2,0.9,0.3,1.4c0.1,0.4,0.2,0.9,0.3,1.3
		c0.3-1.5,0.8-3.8,1.7-6.9l4.2-14.7h1.9l4.9,16.9c0.6,1.9,1,3.5,1.2,4.7c0.1-0.8,0.3-1.6,0.6-2.5c0.2-0.9,1.9-7.3,5.1-19.1h1.7
		L45.8,133z"/>
	<path class="st0" d="M69.3,124.4h-9.9l-3.4,8.6h-1.9l9.8-24.4H65l9.6,24.4h-1.9L69.3,124.4z M60.1,122.9h8.7l-3.3-8.7
		c-0.3-0.7-0.6-1.6-1-2.9c-0.3,1.1-0.6,2-1,2.9L60.1,122.9z"/>
	<path class="st0" d="M85.2,133h-1.7v-22.7h-7.9v-1.6H93v1.6h-7.9V133z"/>
	<path class="st0" d="M103.8,133h-1.7v-22.7h-7.9v-1.6h17.5v1.6h-7.9V133z"/>
	<path class="st0" d="M126.8,133l-9-22.4h-0.1c0.1,1.4,0.1,2.8,0.1,4.2V133h-1.6v-24.3h2.6l8.6,21.3h0.1l8.6-21.3h2.6V133h-1.7
		v-18.4c0-1.3,0.1-2.6,0.2-4H137l-9.1,22.4H126.8z"/>
	<path class="st0" d="M158,124.4h-9.9l-3.4,8.6h-1.9l9.8-24.4h1.1l9.6,24.4h-1.9L158,124.4z M148.8,122.9h8.7l-3.3-8.7
		c-0.3-0.7-0.6-1.6-1-2.9c-0.3,1.1-0.6,2-1,2.9L148.8,122.9z"/>
	<path class="st0" d="M185.2,133h-1.7l-14.4-21.5H169c0.1,2.6,0.2,4.5,0.2,5.8V133h-1.6v-24.3h1.7l14.4,21.5h0.1
		c-0.1-2-0.1-3.9-0.1-5.7v-15.8h1.6V133z"/>
</g>
<g>
	<path class="st0" d="M202.7,119.8h8.9V132c-1.5,0.5-2.9,0.8-4.2,1c-1.3,0.2-2.8,0.3-4.4,0.3c-3.7,0-6.5-1.1-8.5-3.3s-3-5.2-3-9.2
		c0-3.9,1.1-7,3.4-9.2s5.3-3.3,9.3-3.3c2.5,0,4.9,0.5,7.2,1.5l-1.4,3.3c-2-0.9-3.9-1.4-5.9-1.4c-2.6,0-4.6,0.8-6.1,2.4
		s-2.3,3.9-2.3,6.7c0,3,0.7,5.2,2,6.8c1.4,1.5,3.3,2.3,5.9,2.3c1.3,0,2.7-0.2,4.1-0.5v-6.3h-5V119.8z"/>
	<path class="st0" d="M226.7,133h-4v-20.9h-7.1v-3.4h18.2v3.4h-7.1V133z"/>
	<path class="st0" d="M256.9,133h-4.6l-7.6-11l-2.3,1.9v9.1h-4v-24.3h4v11.6c1.1-1.3,2.2-2.6,3.2-3.8l6.6-7.8h4.5
		c-4.2,5-7.3,8.5-9.1,10.6L256.9,133z"/>
</g>
<rect x="30" y="145" class="st0" width="230" height="80"/>
<rect x="68" y="230" class="st1" width="10" height="5"/>
<rect x="68" y="225" class="st0" width="10" height="5"/>
<rect x="142" y="225" class="st0" width="5" height="5"/>
<rect x="60" y="225" class="st0" width="6" height="3"/>
<rect x="60" y="228" class="st1" width="6" height="3"/>
<polygon class="st1" points="150,232.4 150,230 142,230 142,234 148.7,234 "/>
<rect x="80" y="230" class="st1" width="60" height="5"/>
<rect x="80" y="225" class="st0" width="60" height="5"/>
<g>
	<path class="st2" d="M48,149c0,0-2,0-2,2v68c0,0,0,2,2,2h206c0,0,2,0,2-2v-68c0,0,0-2-2-2H48z"/>
	<path class="st3" d="M248,185c0,15.5-12.5,28-28,28s-28-12.5-28-28s12.5-28,28-28S248,169.5,248,185 M250,185c0-16.6-13.4-30-30-30
		c-16.6,0-30,13.4-30,30s13.4,30,30,30C236.6,215,250,201.6,250,185"/>
	<path class="st4" d="M220,195c5.5,0,10-4.5,10-10c0-5.5-4.5-10-10-10c-5.5,0-10,4.5-10,10C210,190.5,214.5,195,220,195"/>
</g>
<polygon class="st5" points="32,151 30,151 30,148 20,148 20,151 27,151 27,245 30,245 30,227 32,227 "/>
<g>
	<path class="st6" d="M242,185c0,12.1-9.9,22-22,22c-12.2,0-22-9.9-22-22c0-12.1,9.8-22,22-22C232.1,163,242,172.9,242,185 M248,185
		c0-15.5-12.5-28-28-28s-28,12.5-28,28s12.5,28,28,28S248,200.5,248,185"/>
	<path class="st0" d="M252,155c1.1,0,2-0.9,2-2c0-1.1-0.9-2-2-2c-1.1,0-2,0.9-2,2C250,154.1,250.9,155,252,155"/>
	<path class="st0" d="M50,155c1.1,0,2-0.9,2-2c0-1.1-0.9-2-2-2c-1.1,0-2,0.9-2,2C48,154.1,48.9,155,50,155"/>
	<path class="st0" d="M252,219c1.1,0,2-0.9,2-2c0-1.1-0.9-2-2-2c-1.1,0-2,0.9-2,2C250,218.1,250.9,219,252,219"/>
	<path class="st0" d="M50,219c1.1,0,2-0.9,2-2c0-1.1-0.9-2-2-2c-1.1,0-2,0.9-2,2C48,218.1,48.9,219,50,219"/>
	<path class="st3" d="M230,185c0,5.5-4.5,10-10,10c-5.5,0-10-4.5-10-10c0-5.5,4.5-10,10-10C225.5,175,230,179.5,230,185 M233,185
		c0-7.2-5.8-13-13-13c-7.2,0-13,5.8-13,13s5.8,13,13,13C227.2,198,233,192.2,233,185"/>
	<path class="st7" d="M252,93L252,93V37c0-1.1-0.9-2-2-2c-1.1,0-2,0.9-2,2v56c0,1.1,0.9,2,2,2C251.1,95,252,94.1,252,93z"/>
	<path class="st7" d="M232,93V63c0-1.1-0.9-2-2-2c-1.1,0-2,0.9-2,2v30c0,1.1,0.9,2,2,2C231.1,95,232,94.1,232,93"/>
	<path class="st7" d="M212,93V73c0-1.1-0.9-2-2-2c-1.1,0-2,0.9-2,2v20c0,1.1,0.9,2,2,2C211.1,95,212,94.1,212,93"/>
	<path class="st7" d="M192,93V83c0-1.1-0.9-2-2-2c-1.1,0-2,0.9-2,2v10c0,1.1,0.9,2,2,2C191.1,95,192,94.1,192,93"/>
	<path class="st8" d="M162,93L162,93V37c0-1.1-0.9-2-2-2c-1.1,0-2,0.9-2,2v56c0,1.1,0.9,2,2,2C161.1,95,162,94.1,162,93z"/>
	<path class="st8" d="M142,93V45c0-1.1-0.9-2-2-2c-1.1,0-2,0.9-2,2v48c0,1.1,0.9,2,2,2C141.1,95,142,94.1,142,93"/>
	<path class="st8" d="M122,93V51c0-1.1-0.9-2-2-2c-1.1,0-2,0.9-2,2v42c0,1.1,0.9,2,2,2C121.1,95,122,94.1,122,93"/>
	<path class="st8" d="M102,93V63c0-1.1-0.9-2-2-2c-1.1,0-2,0.9-2,2v30c0,1.1,0.9,2,2,2C101.1,95,102,94.1,102,93"/>
	<path class="st8" d="M82,93V69c0-1.1-0.9-2-2-2c-1.1,0-2,0.9-2,2v24c0,1.1,0.9,2,2,2C81.1,95,82,94.1,82,93"/>
	<path class="st8" d="M62,93V73c0-1.1-0.9-2-2-2c-1.1,0-2,0.9-2,2v20c0,1.1,0.9,2,2,2C61.1,95,62,94.1,62,93"/>
	<path class="st8" d="M42,93v-5c0-1.1-0.9-2-2-2c-1.1,0-2,0.9-2,2v5c0,1.1,0.9,2,2,2C41.1,95,42,94.1,42,93"/>
</g>
</svg>
