<?xml version="1.0" encoding="utf-8"?>
<!-- Generator: Adobe Illustrator 22.0.1, SVG Export Plug-In . SVG Version: 6.00 Build 0)  -->
<svg version="1.1" id="Layer_1" xmlns="http://www.w3.org/2000/svg" xmlns:xlink="http://www.w3.org/1999/xlink" x="0px" y="0px"
	 viewBox="0 0 280 280" style="enable-background:new 0 0 280 280;" xml:space="preserve">
<style type="text/css">
	.st0{fill:#1D1D1B;}
	.st1{font-family:'OpenSans-Light';}
	.st2{font-size:34px;}
	.st3{font-family:'OpenSans-SemiBold';}
	.st4{fill:#FF9800;}
	.st5{fill:#2B2B2B;}
	.st6{fill:#636362;}
	.st7{fill:#EC3024;}
	.st8{fill:#CFCFCF;}
	.st9{fill:#3C3C3B;}
	.st10{fill:#CE23C0;}
	.st11{fill:#FF3D00;}
</style>
<text transform="matrix(1 0 0 1 23.0352 133.0073)"><tspan x="0" y="0" class="st0 st1 st2">WA</tspan><tspan x="52.4" y="0" class="st0 st1 st2">TTM</tspan><tspan x="119.9" y="0" class="st0 st1 st2">A</tspan><tspan x="141.1" y="0" class="st0 st1 st2">N</tspan></text>
<text transform="matrix(1 0 0 1 189.6016 133.0073)"><tspan x="0" y="0" class="st0 st3 st2">G</tspan><tspan x="25.5" y="0" class="st0 st3 st2">T</tspan><tspan x="45.6" y="0" class="st0 st3 st2">K</tspan></text>
<rect x="30" y="145" class="st0" width="230" height="80"/>
<rect x="68" y="230" class="st4" width="10" height="5"/>
<rect x="68" y="225" class="st0" width="10" height="5"/>
<rect x="142" y="225" class="st0" width="5" height="5"/>
<rect x="60" y="225" class="st0" width="6" height="3"/>
<rect x="60" y="228" class="st4" width="6" height="3"/>
<polygon class="st4" points="150,232.4 150,230 142,230 142,234 148.7,234 "/>
<rect x="80" y="230" class="st4" width="60" height="5"/>
<rect x="80" y="225" class="st0" width="60" height="5"/>
<g>
	<path class="st5" d="M48,149c0,0-2,0-2,2v68c0,0,0,2,2,2h206c0,0,2,0,2-2v-68c0,0,0-2-2-2H48z"/>
	<path class="st6" d="M248,185c0,15.5-12.5,28-28,28s-28-12.5-28-28s12.5-28,28-28S248,169.5,248,185 M250,185c0-16.6-13.4-30-30-30
		c-16.6,0-30,13.4-30,30s13.4,30,30,30C236.6,215,250,201.6,250,185"/>
	<path class="st7" d="M220,195c5.5,0,10-4.5,10-10c0-5.5-4.5-10-10-10c-5.5,0-10,4.5-10,10C210,190.5,214.5,195,220,195"/>
</g>
<polygon class="st8" points="32,151 30,151 30,148 20,148 20,151 27,151 27,245 30,245 30,227 32,227 "/>
<g>
	<path class="st9" d="M242,185c0,12.1-9.9,22-22,22c-12.2,0-22-9.9-22-22c0-12.1,9.8-22,22-22C232.1,163,242,172.9,242,185 M248,185
		c0-15.5-12.5-28-28-28s-28,12.5-28,28s12.5,28,28,28S248,200.5,248,185"/>
	<path class="st0" d="M252,155c1.1,0,2-0.9,2-2c0-1.1-0.9-2-2-2c-1.1,0-2,0.9-2,2C250,154.1,250.9,155,252,155"/>
	<path class="st0" d="M50,155c1.1,0,2-0.9,2-2c0-1.1-0.9-2-2-2c-1.1,0-2,0.9-2,2C48,154.1,48.9,155,50,155"/>
	<path class="st0" d="M252,219c1.1,0,2-0.9,2-2c0-1.1-0.9-2-2-2c-1.1,0-2,0.9-2,2C250,218.1,250.9,219,252,219"/>
	<path class="st0" d="M50,219c1.1,0,2-0.9,2-2c0-1.1-0.9-2-2-2c-1.1,0-2,0.9-2,2C48,218.1,48.9,219,50,219"/>
	<path class="st6" d="M230,185c0,5.5-4.5,10-10,10c-5.5,0-10-4.5-10-10c0-5.5,4.5-10,10-10C225.5,175,230,179.5,230,185 M233,185
		c0-7.2-5.8-13-13-13c-7.2,0-13,5.8-13,13s5.8,13,13,13C227.2,198,233,192.2,233,185"/>
	<path class="st10" d="M252,93L252,93V37c0-1.1-0.9-2-2-2c-1.1,0-2,0.9-2,2v56c0,1.1,0.9,2,2,2C251.1,95,252,94.1,252,93z"/>
	<path class="st10" d="M232,93V63c0-1.1-0.9-2-2-2c-1.1,0-2,0.9-2,2v30c0,1.1,0.9,2,2,2C231.1,95,232,94.1,232,93"/>
	<path class="st10" d="M212,93V73c0-1.1-0.9-2-2-2c-1.1,0-2,0.9-2,2v20c0,1.1,0.9,2,2,2C211.1,95,212,94.1,212,93"/>
	<path class="st10" d="M192,93V83c0-1.1-0.9-2-2-2c-1.1,0-2,0.9-2,2v10c0,1.1,0.9,2,2,2C191.1,95,192,94.1,192,93"/>
	<path class="st11" d="M162,93L162,93V37c0-1.1-0.9-2-2-2c-1.1,0-2,0.9-2,2v56c0,1.1,0.9,2,2,2C161.1,95,162,94.1,162,93z"/>
	<path class="st11" d="M142,93V45c0-1.1-0.9-2-2-2c-1.1,0-2,0.9-2,2v48c0,1.1,0.9,2,2,2C141.1,95,142,94.1,142,93"/>
	<path class="st11" d="M122,93V51c0-1.1-0.9-2-2-2c-1.1,0-2,0.9-2,2v42c0,1.1,0.9,2,2,2C121.1,95,122,94.1,122,93"/>
	<path class="st11" d="M102,93V63c0-1.1-0.9-2-2-2c-1.1,0-2,0.9-2,2v30c0,1.1,0.9,2,2,2C101.1,95,102,94.1,102,93"/>
	<path class="st11" d="M82,93V69c0-1.1-0.9-2-2-2c-1.1,0-2,0.9-2,2v24c0,1.1,0.9,2,2,2C81.1,95,82,94.1,82,93"/>
	<path class="st11" d="M62,93V73c0-1.1-0.9-2-2-2c-1.1,0-2,0.9-2,2v20c0,1.1,0.9,2,2,2C61.1,95,62,94.1,62,93"/>
	<path class="st11" d="M42,93v-5c0-1.1-0.9-2-2-2c-1.1,0-2,0.9-2,2v5c0,1.1,0.9,2,2,2C41.1,95,42,94.1,42,93"/>
</g>
</svg>
